<svg xmlns:dc="http://purl.org/dc/elements/1.1/" xmlns:cc="http://creativecommons.org/ns#" xmlns:rdf="http://www.w3.org/1999/02/22-rdf-syntax-ns#" xmlns:svg="http://www.w3.org/2000/svg" xmlns="http://www.w3.org/2000/svg" xmlns:sodipodi="http://sodipodi.sourceforge.net/DTD/sodipodi-0.dtd" xmlns:inkscape="http://www.inkscape.org/namespaces/inkscape" version="1.1" id="svg10" xml:space="preserve" width="1333.3333" height="208" viewBox="0 0 1333.3333 208" sodipodi:docname="logo_txt_.svg" inkscape:version="0.92.3 (2405546, 2018-03-11)"><script xmlns="" type="text/javascript" src="chrome-extension://ibniinmoafhgbifjojidlagmggecmpgf/dist/inject.js"/><script xmlns=""/><metadata id="metadata16"/><defs id="defs14"><clipPath id="clipPath26"><path d="M 0,156 H 1000 V 0 H 0 Z" id="path24" inkscape:connector-curvature="0"/></clipPath><clipPath id="clipPath54"><path d="M 0,156 H 1000 V 0 H 0 Z" id="path52" inkscape:connector-curvature="0"/></clipPath></defs><g id="g18" inkscape:groupmode="layer" inkscape:label="logo_txt_" transform="matrix(1.3333333,0,0,-1.3333333,0,208)"><g id="g20"><g id="g22" clip-path="url(#clipPath26)"><g id="g28" transform="translate(448.3403,14.3623)"><path d="m 0,0 c -12.936,42.092 -25.872,84.184 -38.808,126.275 h 24.22 C -6.07,98.042 2.447,69.808 10.965,41.574 c 8.931,28.234 17.862,56.468 26.792,84.701 h 16.4 c 9.091,-28.233 18.18,-56.467 27.271,-84.701 8.137,28.234 16.273,56.468 24.409,84.701 h 20.978 C 113.847,84.184 100.878,42.092 87.911,0 H 72.083 C 62.834,29.11 53.584,58.221 44.335,87.331 34.96,58.221 25.584,29.11 16.208,0 Z" style="fill:#313131;fill-opacity:1;fill-rule:nonzero;stroke:none" id="path30" inkscape:connector-curvature="0"/></g><g id="g32" transform="translate(597.0879,14.3623)"><path d="M 0,0 V 126.275 H 103.259 V 104.76 H 23.514 V 76.585 h 46.62 V 55.069 H 23.514 V 23.821 c 26.923,-0.001 53.844,-0.001 80.767,0 l 0,-23.821 z" style="fill:#313131;fill-opacity:1;fill-rule:nonzero;stroke:none" id="path34" inkscape:connector-curvature="0"/></g><g id="g36" transform="translate(756.2207,83.519)"><path d="m 0,0 v 35.347 c 26.311,0 52.62,0 52.62,0 4.06,0 6.835,-0.741 8.326,-2.223 1.492,-1.482 2.237,-4.067 2.237,-7.754 V 10.098 C 63.183,6.33 62.438,3.706 60.946,2.223 59.455,0.741 56.68,0 52.62,0 Z m 49.859,-21.515 h 13.132 c 8.044,0 13.87,1.944 17.478,5.833 3.606,3.889 5.41,10.078 5.41,18.568 v 29.816 c 0,8.575 -1.804,14.788 -5.41,18.639 -3.608,3.852 -9.434,5.778 -17.478,5.778 H -23.105 V -69.157 H 0 v 47.642 H 22.211 C 35.746,-37.396 49.28,-53.276 62.815,-69.157 h 33.649 c -15.535,15.881 -31.069,31.761 -46.605,47.642" style="fill:#313131;fill-opacity:1;fill-rule:nonzero;stroke:none" id="path38" inkscape:connector-curvature="0"/></g><g id="g40" transform="translate(878.3447,14.3623)"><path d="M 0,0 V 126.275 H 23.719 V 73.591 c 18.613,17.561 37.227,35.123 55.841,52.684 h 33.922 C 91.249,106.443 69.015,86.611 46.78,66.78 71.74,44.52 96.701,22.26 121.662,0 H 84.029 L 23.719,55.55 V 0 Z" style="fill:#313131;fill-opacity:1;fill-rule:nonzero;stroke:none" id="path42" inkscape:connector-curvature="0"/></g></g></g><g id="g44" transform="translate(145.2231,14.3623)"><path d="M 0,0 V 126.275 H 103.259 V 104.76 H 23.514 V 76.585 h 46.62 V 55.069 H 23.514 V 23.821 h 80.767 l 0,-23.821 z" style="fill:#ed474a;fill-opacity:1;fill-rule:nonzero;stroke:none" id="path46" inkscape:connector-curvature="0"/></g><g id="g48"><g id="g50" clip-path="url(#clipPath54)"><g id="g56" transform="translate(23.0991,83.519)"><path d="m 0,0 v 35.347 h 52.62 c 4.059,0 6.835,-0.741 8.326,-2.223 1.491,-1.482 2.236,-4.067 2.236,-7.754 V 10.098 C 63.182,6.33 62.437,3.706 60.946,2.223 59.455,0.741 56.679,0 52.62,0 Z M 49.859,-21.515 H 62.99 c 8.045,0 13.871,1.944 17.478,5.833 3.607,3.889 5.41,10.078 5.41,18.568 v 29.816 c 0,8.575 -1.803,14.788 -5.41,18.639 -3.607,3.852 -9.433,5.778 -17.478,5.778 H -23.105 V -69.157 H 0 v 47.642 H 22.211 C 35.746,-37.396 49.28,-53.276 62.815,-69.157 h 33.648 c -15.534,15.881 -31.069,31.761 -46.604,47.642" style="fill:#ed474a;fill-opacity:1;fill-rule:nonzero;stroke:none" id="path58" inkscape:connector-curvature="0"/></g><g id="g60" transform="translate(369.4844,47.6201)"><path d="m 0,0 c -6.746,-6.291 -18.2,-9.437 -34.364,-9.437 h -30.355 v 79.915 h 41.62 c 10.946,0 19.218,-3.326 24.818,-9.976 5.599,-6.65 8.399,-16.425 8.399,-29.325 C 10.118,16.684 6.746,6.291 0,0 M 19.339,76.771 C 9.4,87.602 -4.81,93.018 -23.291,93.018 H -88.233 V -33.258 h 58.929 c 10.162,0 18.499,0.777 25.01,2.329 6.511,1.553 11.959,4.043 16.342,7.469 7.05,5.416 12.513,12.843 16.387,22.279 3.874,9.438 5.811,20.05 5.811,31.837 0,19.912 -4.969,35.284 -14.907,46.115" style="fill:#ed474a;fill-opacity:1;fill-rule:nonzero;stroke:none" id="path62" inkscape:connector-curvature="0"/></g></g></g></g><script xmlns=""/></svg>